<svg width="192" height="192" viewBox="0 0 192 192" fill="none" xmlns="http://www.w3.org/2000/svg">
  <!-- Background circle -->
  <circle cx="96" cy="96" r="96" fill="#4F46E5"/>
  
  <!-- Book icon -->
  <g transform="translate(48, 48)">
    <!-- Book base -->
    <rect x="16" y="24" width="64" height="48" rx="4" fill="white"/>
    <rect x="20" y="28" width="56" height="40" rx="2" fill="#4F46E5"/>
    
    <!-- Book pages -->
    <rect x="24" y="32" width="48" height="2" fill="white" opacity="0.8"/>
    <rect x="24" y="38" width="40" height="2" fill="white" opacity="0.8"/>
    <rect x="24" y="44" width="44" height="2" fill="white" opacity="0.8"/>
    <rect x="24" y="50" width="36" height="2" fill="white" opacity="0.8"/>
    <rect x="24" y="56" width="42" height="2" fill="white" opacity="0.8"/>
    
    <!-- Hub/connection dots -->
    <circle cx="48" cy="16" r="4" fill="white"/>
    <circle cx="32" cy="12" r="3" fill="white" opacity="0.7"/>
    <circle cx="64" cy="12" r="3" fill="white" opacity="0.7"/>
    <circle cx="48" cy="80" r="4" fill="white"/>
    <circle cx="32" cy="84" r="3" fill="white" opacity="0.7"/>
    <circle cx="64" cy="84" r="3" fill="white" opacity="0.7"/>
    
    <!-- Connection lines -->
    <line x1="48" y1="20" x2="48" y2="24" stroke="white" stroke-width="2" opacity="0.6"/>
    <line x1="48" y1="72" x2="48" y2="76" stroke="white" stroke-width="2" opacity="0.6"/>
    <line x1="34" y1="15" x2="44" y2="19" stroke="white" stroke-width="1.5" opacity="0.5"/>
    <line x1="62" y1="15" x2="52" y2="19" stroke="white" stroke-width="1.5" opacity="0.5"/>
  </g>
</svg>